<svg xmlns="http://www.w3.org/2000/svg" viewBox="0 0 25 32">
  <g fill="none" fill-rule="evenodd">
    <path fill="#000000" d="m12.108 32-1.23-1.086C10.428 30.545 0 21.234 0 12.108 0 5.42 5.42 0 12.108 0c6.686 0 12.107 5.42 12.107 12.108 0 9.126-10.428 18.438-10.878 18.806L12.107 32Zm0-28.271a8.39 8.39 0 0 0-8.38 8.379c0 5.387 5.245 11.728 8.37 14.842 2.59-2.55 8.389-9.034 8.389-14.842a8.39 8.39 0 0 0-8.38-8.38Z"/>
    <path fill="#FFF" d="M12.108 3.729a8.39 8.39 0 0 0-8.38 8.379c0 5.387 5.245 11.728 8.37 14.842 2.59-2.55 8.389-9.034 8.389-14.842a8.39 8.39 0 0 0-8.38-8.38Z"/>
    <path fill="#000000" d="M12.108 16.205a4.097 4.097 0 1 0 0-8.195 4.097 4.097 0 0 0 0 8.195Z"/>
  </g>
</svg>
