<svg width="32" height="32" viewBox="0 0 32 32" fill="none" xmlns="http://www.w3.org/2000/svg">
<g clip-path="url(#clip0_2084_2703)">
<path d="M16 32C24.8366 32 32 24.8366 32 16C32 7.16344 24.8366 0 16 0C7.16344 0 0 7.16344 0 16C0 24.8366 7.16344 32 16 32Z" fill="#FFE600"/>
<path d="M12 15.813H15V21.653H12V15.813Z" fill="black"/>
<path d="M17.52 10.7865V5.33313H13.9333V10.7865C12.76 11.3865 12 12.6265 12 14.0131V15.1465H15.6667V22.3198H12V24.5998C12 25.2665 12.5467 25.8131 13.2133 25.8131H18.2267C18.8933 25.8131 19.44 25.2665 19.44 24.5998V14.0131C19.44 12.6265 18.68 11.3865 17.52 10.7865Z" fill="black"/>
</g>
<defs>
<clipPath id="clip0_2084_2703">
<rect width="32" height="32" fill="white"/>
</clipPath>
</defs>
</svg>
