<svg width="32" height="32" viewBox="0 0 32 32" fill="none" xmlns="http://www.w3.org/2000/svg">
<g clip-path="url(#clip0_2084_2701)">
<path d="M16 32C24.8366 32 32 24.8366 32 16C32 7.16344 24.8366 0 16 0C7.16344 0 0 7.16344 0 16C0 24.8366 7.16344 32 16 32Z" fill="#767676"/>
<path d="M17.176 8.34671L18.2027 6.21337L13.3627 5.33337L14.3493 8.34671H17.176ZM23.776 21.4934L22.6027 20.2267L20.3493 20.9067L20.1627 20.2667L22.4827 19.5734L23.1093 18.8934C23.3493 18.7334 23.456 18.44 23.3627 18.16L22.256 15.3734L18.3227 14.2534L18.5093 13.6134L22.1227 14.64L22.2293 13.8534C22.2427 13.72 22.216 13.5867 22.1627 13.4667L22.0027 13.16C21.314 11.8839 20.3199 10.7983 19.1093 10L17.536 8.96004V9.01337H16.3093L17.336 11.1867L16.7227 11.48L15.7493 9.40004L13.9093 12.6667L13.3227 12.3467L15.2027 9.01337H13.9627L10.4427 11.36C10.3093 11.4534 10.216 11.5867 10.176 11.7334L8.84266 17.1334C8.81593 17.2293 8.81593 17.3308 8.84266 17.4267L9.05599 18.2934L12.736 16.1867L13.0693 16.76L8.88266 19.16L8.86932 19.1467C8.61599 19.6534 8.25599 20.4267 8.10932 20.9467C7.77599 22.0667 8.21599 23.2934 9.21599 23.88C9.48266 24.04 9.76266 24.1467 10.0293 24.1467H21.4693C22.416 24.1467 23.2827 24.04 23.736 23.2C23.976 22.7734 24.2293 22.16 23.776 21.4934Z" fill="white"/>
</g>
<defs>
<clipPath id="clip0_2084_2701">
<rect width="32" height="32" fill="white"/>
</clipPath>
</defs>
</svg>
