<svg width="32" height="32" viewBox="0 0 32 32" fill="none" xmlns="http://www.w3.org/2000/svg">
<g clip-path="url(#clip0_2524_6166)">
<path d="M16 32C24.8366 32 32 24.8366 32 16C32 7.16344 24.8366 0 16 0C7.16344 0 0 7.16344 0 16C0 24.8366 7.16344 32 16 32Z" fill="#00A03C"/>
<path d="M21.6 23.9746C20.7866 23.388 19.44 22.1346 19.32 21.2413C19.16 20.0146 19.64 18.8413 20.0666 18.0813L20.2533 17.748L20.0133 17.4413C19.3733 16.628 19.0133 15.828 18.92 15.0813C18.8266 14.2813 19.6666 12.8413 20.2133 12.1213L20.6266 11.588L20.04 11.268C19.12 10.748 18.1333 10.548 17.1733 10.668C16.68 10.7346 16.2133 10.8813 15.76 11.1213C15.96 10.468 15.96 9.78798 15.7466 9.13464C19.52 9.48131 19.4533 5.45464 19.4533 5.45464L19.4266 5.44131C19.4266 5.44131 15.0666 4.36131 14.9866 9.01464H15.0133C15.2933 9.64131 15.32 10.3346 15.1066 10.9746C14.7654 10.8279 14.407 10.7249 14.04 10.668C13.0666 10.548 12.08 10.748 11.16 11.2546L10.5733 11.588L10.9866 12.1213C11.3466 12.6013 12.3733 14.1746 12.28 15.0813C12.1866 15.828 11.8266 16.628 11.2 17.4413L10.96 17.748L11.1466 18.0813C11.5733 18.8413 12.04 20.0146 11.88 21.2413C11.7466 22.2546 10.4 23.5746 9.89331 24.0013L9.33331 24.468L9.90665 24.908C10.5733 25.4146 11.4 25.7746 12.2 25.8813C12.3866 25.908 12.5733 25.9213 12.76 25.9213C13.8 25.9213 14.8266 25.548 15.76 24.8413C16.8666 25.6813 18.1066 26.0413 19.32 25.8813C20.12 25.7746 20.9466 25.428 21.6133 24.908L22.2266 24.428L21.6 23.9746Z" fill="#181818"/>
</g>
<defs>
<clipPath id="clip0_2524_6166">
<rect width="32" height="32" fill="white"/>
</clipPath>
</defs>
</svg>
