<svg width="32" height="32" viewBox="0 0 32 32" fill="none" xmlns="http://www.w3.org/2000/svg">
<g clip-path="url(#clip0_2084_2702)">
<path d="M16 32C24.8366 32 32 24.8366 32 16C32 7.16344 24.8366 0 16 0C7.16344 0 0 7.16344 0 16C0 24.8366 7.16344 32 16 32Z" fill="#004699"/>
<path d="M9.39996 8.67996L10.3866 10.4L16.04 7.90663L16.3733 8.47996L17.52 7.81329L16.8533 6.66663L9.39996 8.67996Z" fill="white"/>
<path d="M17.52 7.81323L9.33331 12.5599L16.6666 25.2666L24.8666 20.5332L17.52 7.81323ZM19.2933 14.3999L17.7733 15.2799L17.1066 14.1199L18.64 13.2399L19.2933 14.3999ZM17.2933 10.9332L17.96 12.0932L16.44 12.9732L15.7733 11.8266L17.2933 10.9332ZM12.3066 13.8266L14.6133 12.4932L16.6133 15.9599L14.3066 17.2932L12.3066 13.8266ZM14.9733 18.4399L19.9733 15.5599L20.64 16.7199L15.64 19.5999L14.9733 18.4399ZM16.3066 20.7466L21.3066 17.8666L21.9733 19.0266L16.9733 21.9066L16.3066 20.7466Z" fill="white"/>
</g>
<defs>
<clipPath id="clip0_2084_2702">
<rect width="32" height="32" fill="white"/>
</clipPath>
</defs>
</svg>
