<svg width="32" height="32" viewBox="0 0 32 32" fill="none" xmlns="http://www.w3.org/2000/svg">
<g clip-path="url(#clip0_2524_6165)">
<path d="M16 32C24.8366 32 32 24.8366 32 16C32 7.16344 24.8366 0 16 0C7.16344 0 0 7.16344 0 16C0 24.8366 7.16344 32 16 32Z" fill="#E50082"/>
<path d="M25.7466 8.74672L21.6133 5.86672L21.5866 5.84005L21.56 5.81339C21.0468 5.49783 20.4558 5.33161 19.8533 5.33339H12.16C11.56 5.33339 10.9733 5.50672 10.4533 5.81339L10.4266 5.84005L10.4 5.86672L6.26665 8.74672L5.33331 9.40005L5.83998 10.4001L7.31998 13.3067L7.73331 14.1067L8.63998 14.0001L9.79998 13.8534L10.32 23.4401L10.3866 24.6667H21.6133L21.68 23.4401L22.2 13.8534L23.36 14.0001L24.2666 14.1067L24.68 13.2934L26.16 10.3867L26.6666 9.40005L25.7466 8.74672ZM16 9.78672C15.135 9.78651 14.3016 9.46171 13.6647 8.87657C13.0277 8.29143 12.6335 7.48855 12.56 6.62672H19.4533C19.3743 7.48878 18.9766 8.29039 18.338 8.87479C17.6993 9.45919 16.8657 9.78436 16 9.78672Z" fill="white"/>
</g>
<defs>
<clipPath id="clip0_2524_6165">
<rect width="32" height="32" fill="white"/>
</clipPath>
</defs>
</svg>
